USFL
nRows=98
nColumns=2
inDegrees=yes
endheader
time	med_gas_r	
4.6875	 46.392410	
4.75	 46.397650	
4.8125	 46.260248	
4.875	 46.336966	
4.9375	 46.540708	
5	 46.337111	
5.0625	 46.334480	
5.125	 46.543874	
5.1875	 46.731115	
5.25	 46.771441	
5.3125	 46.671980	
5.375	 46.665540	
5.4375	 46.394804	
5.5	 46.328046	
5.5625	 46.354099	
5.625	 46.234436	
5.6875	 46.357577	
5.75	 46.294109	
5.8125	 46.349169	
5.875	 46.217808	
5.9375	 46.367965	
6	 46.614537	
6.0625	 46.631392	
6.125	 46.677732	
6.1875	 46.496439	
6.25	 45.443717	
6.3125	 45.032007	
6.375	 44.075450	
6.4375	 44.698468	
6.5	 43.359274	
6.5625	 37.165925	
6.625	 37.834739	
6.6875	 37.992500	
6.75	 37.320115	
6.8125	 36.795676	
6.875	 36.556837	
6.9375	 36.693008	
7	 36.336123	
7.0625	 36.161341	
7.125	 35.978290	
7.1875	 35.986549	
7.25	 36.278660	
7.3125	 35.941084	
7.375	 36.114262	
7.4375	 35.729194	
7.5	 36.087424	
7.5625	 35.606226	
7.625	 35.471678	
7.6875	 35.318197	
7.75	 35.336718	
7.8125	 35.292964	
7.875	 35.395444	
7.9375	 35.482677	
8	 35.742020	
8.0625	 35.784819	
8.125	 36.136271	
8.1875	 36.220130	
8.25	 36.337834	
8.3125	 36.830071	
8.375	 37.069391	
8.4375	 37.032751	
8.5	 36.878485	
8.5625	 37.022736	
8.625	 36.994785	
8.6875	 37.128102	
8.75	 36.669094	
8.8125	 36.912502	
8.875	 37.585757	
8.9375	 37.820285	
9	 38.061913	
9.0625	 38.065293	
9.125	 38.741811	
9.1875	 38.863389	
9.25	 39.302697	
9.3125	 39.446539	
9.375	 39.194326	
9.4375	 39.446232	
9.5	 39.474559	
9.5625	 39.349229	
9.625	 39.248981	
9.6875	 39.289551	
9.75	 39.536170	
9.8125	 39.395228	
9.875	 39.443049	
9.9375	 39.340430	
10	 39.198669	
10.0625	 39.139606	
10.125	 38.961108	
10.1875	 39.218838	
10.25	 39.389622	
10.3125	 41.443773	
10.375	 40.239899	
10.4375	 42.203870	
10.5	 42.194737	
10.5625	 43.520969	
10.625	 44.874312	
10.6875	 45.646920	
10.75	 46.026266	
